<?xml version="1.0" encoding="utf-8"?>
<!-- Generator: Adobe Illustrator 18.1.1, SVG Export Plug-In . SVG Version: 6.00 Build 0)  -->
<!DOCTYPE svg PUBLIC "-//W3C//DTD SVG 1.1//EN" "http://www.w3.org/Graphics/SVG/1.1/DTD/svg11.dtd">
<svg version="1.1" id="Layer_1" xmlns="http://www.w3.org/2000/svg" xmlns:xlink="http://www.w3.org/1999/xlink" x="0px" y="0px"
	 viewBox="0 0 2048 1536" enable-background="new 0 0 2048 1536" xml:space="preserve">
<g id="c" display="none">
	<g id="_x36__2_" display="inline">
		<g>
			<path fill="#34343F" d="M1361.9,783.4c61.4-76.8,101.4-172,101.4-276.5c0-242.7-196.6-436.2-439.3-436.2S584.7,267.3,584.7,506.9
				c0,104.4,36.9,202.8,101.4,276.5c-113.7,36.9-196.6,132.1-196.6,245.8v175.1c0,144.4,132.1,261.1,291.8,261.1h488.4
				c162.8,0,291.8-116.7,291.8-261.1v-175.1C1561.6,915.5,1478.7,820.2,1361.9,783.4z M683,506.9c0-193.5,153.6-350.2,341-350.2
				s341,156.7,341,350.2s-153.6,350.2-341,350.2S683,700.4,683,506.9z M1463.3,1182.7c0,107.5-107.5,196.6-239.6,196.6H824.3
				c-132.1,0-239.6-89.1-239.6-196.6v-132.1c0-92.2,79.9-169,184.3-190.5c70.7,52.2,159.7,82.9,255,82.9s184.3-30.7,255-82.9
				c104.4,21.5,184.3,98.3,184.3,190.5V1182.7z"/>
		</g>
	</g>
</g>
<g id="c_1_" display="none">
	<g id="_x36__3_" display="inline">
		<g>
			<path fill="#FFFFFF" d="M1361.9,783.4c61.4-76.8,101.4-172,101.4-276.5c0-242.7-196.6-436.2-439.3-436.2S584.7,267.3,584.7,506.9
				c0,104.4,36.9,202.8,101.4,276.5c-113.7,36.9-196.6,132.1-196.6,245.8v175.1c0,144.4,132.1,261.1,291.8,261.1h488.4
				c162.8,0,291.8-116.7,291.8-261.1v-175.1C1561.6,915.5,1478.7,820.2,1361.9,783.4z M683,506.9c0-193.5,153.6-350.2,341-350.2
				s341,156.7,341,350.2s-153.6,350.2-341,350.2S683,700.4,683,506.9z M1463.3,1182.7c0,107.5-107.5,196.6-239.6,196.6H824.3
				c-132.1,0-239.6-89.1-239.6-196.6v-132.1c0-92.2,79.9-169,184.3-190.5c70.7,52.2,159.7,82.9,255,82.9s184.3-30.7,255-82.9
				c104.4,21.5,184.3,98.3,184.3,190.5V1182.7z"/>
		</g>
	</g>
</g>
<g id="l" display="none">
	<g id="_x31__2_" display="inline">
		<g>
			<path fill="#FFFFFF" d="M1024,70.7c-288.8,0-525.3,233.5-525.3,525.3c0,218.1,436.2,872.4,525.3,872.4
				c86,0,525.3-657.4,525.3-872.4C1549.3,304.1,1312.8,70.7,1024,70.7z M1024,1336.3c-73.7,0-436.2-559.1-436.2-743.4
				c0-242.7,196.6-436.2,436.2-436.2s436.2,196.6,436.2,436.2C1460.2,774.1,1094.7,1336.3,1024,1336.3z M1024,374.8
				c-119.8,0-218.1,98.3-218.1,218.1S904.2,811,1024,811s218.1-98.3,218.1-218.1S1143.8,374.8,1024,374.8z M1024,725
				c-73.7,0-132.1-58.4-132.1-132.1s58.4-132.1,132.1-132.1s132.1,58.4,132.1,132.1S1097.7,725,1024,725z"/>
		</g>
	</g>
</g>
<g id="_x31__5_">
	<g>
		<path fill="#FB797B" d="M725,867.7H525.6c-110.1,0-199.4,89.3-199.4,199.4v199.4c0,110.1,89.3,199.4,199.4,199.4H725
			c110.1,0,199.4-89.3,199.4-199.4V1067C924.3,956.9,835.1,867.7,725,867.7z M824.6,1266.4c0,55-44.6,99.7-99.7,99.7H525.6
			c-55,0-99.7-44.6-99.7-99.7V1067c0-55,44.6-99.7,99.7-99.7H725c55,0,99.7,44.6,99.7,99.7V1266.4z M725,70.2H525.6
			c-110.1,0-199.4,89.3-199.4,199.4V469c0,110.1,89.3,199.4,199.4,199.4H725c110.1,0,199.4-89.3,199.4-199.4V269.6
			C924.3,159.5,835.1,70.2,725,70.2z M824.6,469c0,55-44.6,99.7-99.7,99.7H525.6c-55,0-99.7-44.6-99.7-99.7V269.6
			c0-55,44.6-99.7,99.7-99.7H725c55,0,99.7,44.6,99.7,99.7V469z M1522.4,70.2H1323c-110.1,0-199.4,89.3-199.4,199.4V469
			c0,110.1,89.3,199.4,199.4,199.4h199.4c110.1,0,199.4-89.3,199.4-199.4V269.6C1721.8,159.5,1632.5,70.2,1522.4,70.2z M1622.1,469
			c0,55-44.6,99.7-99.7,99.7H1323c-55,0-99.7-44.6-99.7-99.7V269.6c0-55,44.6-99.7,99.7-99.7h199.4c55,0,99.7,44.6,99.7,99.7V469z
			 M1522.4,867.7H1323c-110.1,0-199.4,89.3-199.4,199.4v199.4c0,110.1,89.3,199.4,199.4,199.4h199.4c110.1,0,199.4-89.3,199.4-199.4
			V1067C1721.8,956.9,1632.5,867.7,1522.4,867.7z M1622.1,1266.4c0,55-44.6,99.7-99.7,99.7H1323c-55,0-99.7-44.6-99.7-99.7V1067
			c0-55,44.6-99.7,99.7-99.7h199.4c55,0,99.7,44.6,99.7,99.7V1266.4z"/>
	</g>
</g>
</svg>
